/* XPM */
static char*black_xpm[]={
"40 16 2 1",
"# c #000000",
". c #ffffff",
"........................................",
"........................................",
"########################################",
"########################################",
"########################################",
"########################################",
"########################################",
"########################################",
"########################################",
"########################################",
"########################################",
"########################################",
"########################################",
"########################################",
"........................................",
"........................................",
};

