/* XPM */
static char*joinfork_pixmap[]={
"15 18 2 1",
"# c #000000",
". c None",
"...............",
"......###......",
"......###......",
"......###......",
"......###......",
"......###......",
"......###......",
"......###......",
"......###......",
"......###......",
"......###......",
"......###......",
"......###......",
"......###......",
"......###......",
"......###......",
"......###......",
"..............."};
