/* XPM */
static char*pinmarked_xpm[]={
"16 16 2 1",
"# c #000000",
". c #ff0000",
"................",
"................",
"................",
"................",
"................",
"................",
"......#####.....",
"......#...#.....",
"......#...#.....",
"......#...#.....",
"......#####.....",
"................",
"................",
"................",
"................",
"................"};
