/* XPM */
static char*terminate_big_pixmap[]={
"21 21 2 1",
"# c #000000",
". c None",
".....................",
".#.................#.",
"..#...............#..",
"...#.............#...",
"....#...........#....",
".....#.........#.....",
"......#.......#......",
".......#.....#.......",
"........#...#........",
".........#.#.........",
"..........#..........",
".........#.#.........",
"........#...#........",
".......#.....#.......",
"......#.......#......",
".....#.........#.....",
"....#...........#....",
"...#.............#...",
"..#...............#..",
".#.................#.",
"....................."};
